<?xml version="1.0" standalone="no"?><!DOCTYPE svg PUBLIC "-//W3C//DTD SVG 1.1//EN" "http://www.w3.org/Graphics/SVG/1.1/DTD/svg11.dtd"><svg t="1627211478724" class="icon" viewBox="0 0 1024 1024" version="1.1" xmlns="http://www.w3.org/2000/svg" p-id="4603" xmlns:xlink="http://www.w3.org/1999/xlink" width="200" height="200"><defs><style type="text/css">@font-face { font-family: feedback-iconfont; src: url("//at.alicdn.com/t/font_1031158_1uhr8ri0pk5.eot?#iefix") format("embedded-opentype"), url("//at.alicdn.com/t/font_1031158_1uhr8ri0pk5.woff2") format("woff2"), url("//at.alicdn.com/t/font_1031158_1uhr8ri0pk5.woff") format("woff"), url("//at.alicdn.com/t/font_1031158_1uhr8ri0pk5.ttf") format("truetype"), url("//at.alicdn.com/t/font_1031158_1uhr8ri0pk5.svg#iconfont") format("svg"); }
</style></defs><path d="M881 356.02929687c-35.1-9.17929688-117.63017578-9-238.41035156-12.23964843 5.76035156-26.36982422 7.02070312-50.12929687 7.02070312-92.25C649.7 150.73964844 576.26035156 62 511.27929687 62c-45.89912109 0-83.69912109 37.52929688-84.23964843 83.61035156-0.62929687 56.51982422-18 154.16894531-112.31982422 203.75947266-6.93017578 3.6-26.63964844 13.31982422-29.51982422 14.66982422l1.43964844 1.26035156a89.1 89.1 0 0 0-56.15947266-22.5H146.23964844A84.33017578 84.33017578 0 0 0 62 427.03964844V876.5c0 46.43964844 37.8 84.23964844 84.23964844 84.23964844h84.24052734a83.25 83.25 0 0 0 74.96982422-48.50947266l1.26035156 0.36035156 6.75 1.7991211c0.45 0 0.71982422 0.09052734 1.25947266 0.27070312 16.2 4.05 47.34052734 11.42929688 113.85 26.72929688 14.4 3.24052734 89.63964844 19.35 167.76035156 19.35h153.53964844c46.8 0 81.45-17.45947266 100.53017578-54.17929688 18.72070313-32.58105469 110.33964844-207.45 110.25-453.96035156 0-35.46035156-24.56982422-80.73017578-79.65-96.48017578ZM258.56035156 876.5c0 15.48017578-12.6 28.08017578-28.08105468 28.08017578H146.24052734a28.08017578 28.08017578 0 0 1-28.07929687-28.08017578V427.03964844c0-15.47929688 12.6-28.07929688 28.07929687-28.07929688h84.24052735c15.56982422 0 28.08017578 12.6 28.08017578 28.07929688V876.5ZM903.86035156 470.23964844c-11.7 282.15-102.96035156 409.86035156-102.96035156 409.86035156-8.55 15.3-22.13964844 24.48017578-51.11982422 24.48017578H596.33017578c-77.13017578 0-153.63017578-17.46035156-155.61035156-18-116.63964844-26.81982422-122.75947266-28.88964844-130.05-30.96035156l4.05-412.65c0-42.65947266 0.9-31.86035156 0-31.31982422C443.06035156 358.55 482.11982422 242 483.2 146.33017578A28.16982422 28.16982422 0 0 1 511.28017578 118.25c29.7 0 82.16982422 59.58017578 82.16982422 133.38017578 0 66.6-2.7 78.02929688-26.01035156 147.41982422 280.8 0 278.91035156 4.05 303.66035156 10.52929688 30.77929687 8.82070312 33.3 34.20087891 33.3 43.02070312 0 9.63017578-0.18017578 8.27929688-0.53964844 17.63964844Z" fill="#8a8a8a" p-id="4604"></path></svg>