<?xml version="1.0" standalone="no"?><!DOCTYPE svg PUBLIC "-//W3C//DTD SVG 1.1//EN" "http://www.w3.org/Graphics/SVG/1.1/DTD/svg11.dtd"><svg t="1627210538677" class="icon" viewBox="0 0 1024 1024" version="1.1" xmlns="http://www.w3.org/2000/svg" p-id="1192" xmlns:xlink="http://www.w3.org/1999/xlink" width="200" height="200"><defs><style type="text/css">@font-face { font-family: feedback-iconfont; src: url("//at.alicdn.com/t/font_1031158_1uhr8ri0pk5.eot?#iefix") format("embedded-opentype"), url("//at.alicdn.com/t/font_1031158_1uhr8ri0pk5.woff2") format("woff2"), url("//at.alicdn.com/t/font_1031158_1uhr8ri0pk5.woff") format("woff"), url("//at.alicdn.com/t/font_1031158_1uhr8ri0pk5.ttf") format("truetype"), url("//at.alicdn.com/t/font_1031158_1uhr8ri0pk5.svg#iconfont") format("svg"); }
</style></defs><path d="M512.6 829.8c-243.9 0-382.5-219.7-419.2-287-10.6-19.5-10.6-41.9-1.2-59.2 37.8-69.5 176.3-289.3 420.4-289.3 243.9 0 382.5 219.7 419.2 287.1 9 19.3 9 42.1 0.9 59.7-37.6 69-176.3 288.7-420.1 288.7z m0-580.4c-238.4 0-369.2 256.2-370.5 258.7l-2 3.9 2 3.9c1.3 2.6 132.1 258.8 370.5 258.8s369.3-256.2 370.5-258.8l2-3.9-2-3.9c-1.2-2.6-132.1-258.7-370.5-258.7z" p-id="1193" fill="#8a8a8a"></path><path d="M512.6 648.4c-75.2 0-136.4-61.2-136.4-136.4s61.2-136.4 136.4-136.4S649 436.8 649 512s-61.1 136.4-136.4 136.4z m0-217.6c-44.8 0-81.3 36.4-81.3 81.2 0 44.8 36.4 81.3 81.3 81.3 44.8 0 81.3-36.4 81.3-81.3 0-44.8-36.5-81.2-81.3-81.2z" p-id="1194" fill="#8a8a8a"></path></svg>