<?xml version="1.0" standalone="no"?><!DOCTYPE svg PUBLIC "-//W3C//DTD SVG 1.1//EN" "http://www.w3.org/Graphics/SVG/1.1/DTD/svg11.dtd"><svg t="1621749773849" class="icon" viewBox="0 0 1024 1024" version="1.1" xmlns="http://www.w3.org/2000/svg" p-id="3015" xmlns:xlink="http://www.w3.org/1999/xlink" width="200" height="200"><defs><style type="text/css"></style></defs><path d="M752.901575 358.913954l-304.201662 264.825888-105.779288-110.34412c-13.234726-17.635355-39.704179-17.635355-57.339534 0-17.635355 13.234726-17.635355 39.737019 0 57.372374l132.248741 141.279882c8.834098 8.834098 17.635355 13.234726 30.837241 13.234726 8.866938 0 17.635355-4.433469 26.469452-8.866938l330.605433-286.894712c17.635355-13.234726 17.635355-39.737019 4.433469-57.372374-13.201886-17.635355-39.671338-26.469453-57.273852-13.234726z m229.128251 110.475482c-3.415413-20.032712-21.444854-58.685995-40.656554-55.369103a37.175459 37.175459 0 0 0-7.71752 2.265995c-22.035983 4.433469-37.076938 20.229755-28.045797 43.250954 8.9983 36.814214 0 119.703666 0 119.703666-13.49745 110.475482-67.454411 207.190789-152.872583 271.623874-85.451012 69.063596-188.898624 96.649626-296.779705 82.856611-107.946762-13.825855-202.363234-69.063596-269.850486-156.55072-67.421571-87.487124-94.416472-193.364934-80.919022-303.873256 13.49745-110.475482 67.454411-207.190789 152.872583-271.623874 85.451012-69.096437 188.865784-96.682467 296.779706-82.856611 80.951862 9.195343 157.404573 46.009557 215.827844 96.649626 18.029441 13.825855 43.973445 28.604086 61.6088 10.968731 13.234726-17.668195 13.234726-39.737019-4.400629-57.372374-70.541419-61.805843-158.718194-101.542863-255.696225-114.777589-127.848113-17.635355-251.262756 17.668195-352.674257 97.109394-101.37866 83.874667-167.519451 198.652256-180.721337 322.231102-13.234726 123.611687 17.635355 251.624002 96.978032 348.700555 79.342677 101.542863 189.555434 163.348706 317.403547 176.583432 123.414644 13.234726 220.392675-4.433469 352.641416-97.109394 101.411501-79.474039 163.118822-189.785318 180.754177-313.397004-4.46631 4.433469 8.932619-63.776274-4.53199-119.014015z" fill="#F11E1A" p-id="3016"></path></svg>