<?xml version="1.0" standalone="no"?><!DOCTYPE svg PUBLIC "-//W3C//DTD SVG 1.1//EN" "http://www.w3.org/Graphics/SVG/1.1/DTD/svg11.dtd"><svg t="1617982159566" class="icon" viewBox="0 0 1280 1024" version="1.1" xmlns="http://www.w3.org/2000/svg" p-id="6010" width="250" height="200" xmlns:xlink="http://www.w3.org/1999/xlink"><defs><style type="text/css"></style></defs><path d="M624.25805 10.667c-276.864 0-501.334 224.426-501.334 501.333s224.47 501.333 501.334 501.333c276.906 0 501.333-224.426 501.333-501.333S901.16405 10.667 624.25805 10.667z m0 64c241.536 0 437.333 195.84 437.333 437.333S865.79405 949.333 624.25805 949.333c-241.494 0-437.334-195.84-437.334-437.333S382.76505 74.667 624.25805 74.667z" p-id="6011" fill="#ea68a2"></path><path d="M995.75605 275.541l-14.762-62.293 26.197-5.973c132.096-28.886 213.12-26.624 234.624 24.064 37.12 87.381-201.6 246.954-543.53 393.856l-16.342 6.997C331.30805 781.013 42.37005 845.269 4.65305 756.48c-21.334-50.219 31.573-108.544 140.629-182.059l11.093-7.381 35.285 53.376c-47.616 31.488-83.797 60.075-105.984 83.499-16.81 17.792-21.76 28.416-22.101 27.562 13.099 30.891 283.99-28.757 578.39-151.893l14.933-6.315c300.117-127.36 539.306-285.482 525.994-316.928 0.256 0.598-12.757-3.498-40.277-3.242-32.683 0.341-77.653 6.826-131.84 18.986l-15.019 3.456z" p-id="6012" fill="#ea68a2"></path><path d="M709.59105 170.667a106.667 106.667 0 1 0 0 213.333 106.667 106.667 0 0 0 0-213.333z m0 42.666a64 64 0 1 1 0 128 64 64 0 0 1 0-128z m-362.667 192a85.333 85.333 0 1 0 0 170.667 85.333 85.333 0 0 0 0-170.667z m0 42.667a42.667 42.667 0 1 1 0 85.333 42.667 42.667 0 0 1 0-85.333z m426.667 213.333a85.333 85.333 0 1 0 0 170.667 85.333 85.333 0 0 0 0-170.667z m0 42.667a42.667 42.667 0 1 1 0 85.333 42.667 42.667 0 0 1 0-85.333z" p-id="6013" fill="#ea68a2"></path></svg>