<?xml version="1.0" standalone="no"?><!DOCTYPE svg PUBLIC "-//W3C//DTD SVG 1.1//EN" "http://www.w3.org/Graphics/SVG/1.1/DTD/svg11.dtd"><svg t="1629622274866" class="icon" viewBox="0 0 1220 1024" version="1.1" xmlns="http://www.w3.org/2000/svg" p-id="10267" xmlns:xlink="http://www.w3.org/1999/xlink" width="238.28125" height="200"><defs><style type="text/css"></style></defs><path d="M735.271385 858.072615h-255.094154a170.653538 170.653538 0 0 1-166.045539 146.195693 174.631385 174.631385 0 0 1-168.644923-170.338462 174.749538 174.749538 0 0 1 168.644923-180.539077 170.614154 170.614154 0 0 1 166.045539 146.195693h255.054769a168.566154 168.566154 0 0 1 143.241846-144.659693 167.975385 167.975385 0 0 1 189.046154 144.659693h59.982769a18.116923 18.116923 0 0 0 17.723077-18.471385V78.178462H411.648a18.116923 18.116923 0 0 0-17.762462 18.471384v96.216616a31.153231 31.153231 0 0 1-11.815384 24.772923l-10.830769 8.310153-283.017847 216.300308a31.507692 31.507692 0 0 0-12.091076 24.812308v303.261538a28.672 28.672 0 0 1-28.041847 29.26277 28.672 28.672 0 0 1-28.041846-29.26277v-332.878769a31.192615 31.192615 0 0 1 12.051693-24.733538l293.927384-224.492308a31.271385 31.271385 0 0 0 12.051692-24.851692V50.609231a30.129231 30.129231 0 0 1 29.499077-30.759385h804.43077a29.696 29.696 0 0 1 29.538461 29.814154V827.470769a30.208 30.208 0 0 1-29.538461 30.759385H1067.323077a168.408615 168.408615 0 0 1-143.202462 144.620308 166.754462 166.754462 0 0 1-23.118769 1.614769 168.211692 168.211692 0 0 1-165.730461-146.392616z m131.584-142.25723a115.790769 115.790769 0 0 0-82.707693 88.969846 116.854154 116.854154 0 0 0 117.169231 140.957538 114.845538 114.845538 0 0 0 112.285539-116.972307v-3.702154a116.381538 116.381538 0 0 0-115.712-113.348923 120.910769 120.910769 0 0 0-31.035077 4.096zM201.964308 825.068308a116.578462 116.578462 0 0 0 112.167384 120.674461 116.460308 116.460308 0 0 0 112.128-113.230769 116.578462 116.578462 0 0 0-112.128-120.713846 116.499692 116.499692 0 0 0-112.167384 113.230769z m-11.34277-265.373539a28.711385 28.711385 0 0 1-28.750769-28.750769 28.711385 28.711385 0 0 1 28.750769-28.750769h152.891077V349.184a28.711385 28.711385 0 0 1 28.829539-28.711385 28.790154 28.790154 0 0 1 28.750769 28.829539v181.681231a28.750769 28.750769 0 0 1-28.750769 28.750769z" p-id="10268" fill="#707070"></path></svg>