<?xml version="1.0" standalone="no"?><!DOCTYPE svg PUBLIC "-//W3C//DTD SVG 1.1//EN" "http://www.w3.org/Graphics/SVG/1.1/DTD/svg11.dtd"><svg t="1629622213335" class="icon" viewBox="0 0 1024 1024" version="1.1" xmlns="http://www.w3.org/2000/svg" p-id="8313" xmlns:xlink="http://www.w3.org/1999/xlink" width="200" height="200"><defs><style type="text/css"></style></defs><path d="M732.680192 827.003904H236.41088c-51.308544 0-93.05088-41.742336-93.05088-93.049856V289.65888c0-51.30752 41.742336-93.05088 93.05088-93.05088h496.269312c51.30752 0 93.049856 41.742336 93.049856 93.05088v72.931328c0 8.797184-7.13216 15.927296-15.92832 15.927296s-15.926272-7.130112-15.926272-15.927296V289.65888c0-33.742848-27.454464-61.195264-61.196288-61.195264H236.41088c-33.742848 0-61.195264 27.452416-61.195264 61.195264v444.295168c0 33.741824 27.452416 61.196288 61.195264 61.196288h496.269312c33.741824 0 61.196288-27.454464 61.196288-61.196288v-86.34368c0-8.79616 7.130112-15.92832 15.926272-15.92832s15.92832 7.13216 15.92832 15.92832v86.34368c-0.001024 51.30752-41.74336 93.049856-93.05088 93.049856z" p-id="8314" fill="#707070"></path><path d="M813.993984 610.72384h-222.98624c-36.977664 0-67.063808-30.084096-67.063808-67.063808v-75.445248c0-36.978688 30.086144-67.062784 67.063808-67.062784h222.98624c36.977664 0 67.063808 30.084096 67.063808 67.062784v75.445248c0 36.979712-30.086144 67.063808-67.063808 67.063808z m-222.98624-177.717248c-19.414016 0-35.208192 15.794176-35.208192 35.208192v75.445248c0 19.414016 15.794176 35.21024 35.208192 35.21024h222.98624c19.414016 0 35.208192-15.796224 35.208192-35.21024v-75.445248c0-19.414016-15.794176-35.208192-35.208192-35.208192h-222.98624z" p-id="8315" fill="#707070"></path><path d="M632.08448 536.118272c-16.64 0-30.178304-13.540352-30.178304-30.180352 0-16.641024 13.538304-30.178304 30.178304-30.178304 16.642048 0 30.180352 13.53728 30.180352 30.178304-0.001024 16.64-13.539328 30.180352-30.180352 30.180352z m0-31.85664c-0.923648 0-1.676288 0.751616-1.676288 1.676288s0.751616 1.677312 1.676288 1.677312 1.678336-0.75264 1.678336-1.677312a1.680384 1.680384 0 0 0-1.678336-1.676288z" p-id="8316" fill="#707070"></path></svg>