<?xml version="1.0" standalone="no"?><!DOCTYPE svg PUBLIC "-//W3C//DTD SVG 1.1//EN" "http://www.w3.org/Graphics/SVG/1.1/DTD/svg11.dtd"><svg t="1629622337902" class="icon" viewBox="0 0 1024 1024" version="1.1" xmlns="http://www.w3.org/2000/svg" p-id="11999" xmlns:xlink="http://www.w3.org/1999/xlink" width="200" height="200"><defs><style type="text/css"></style></defs><path d="M893.486 983.206l-765.036 0c-35.43 0-64.254-28.827-64.254-64.259l0-539.943c0-0.238 0.172-24.418 4.004-37l60.09-197.65c8.332-27.436 35.028-48.131 62.097-48.131l641.16 0c27.078 0 53.78 20.696 62.11 48.141l60.084 197.652c3.822 12.571 3.994 36.749 3.994 36.987l0 539.943c0 35.432-28.821 64.259-64.248 64.259zM117.172 356.821c-0.959 3.715-1.802 17.125-1.811 22.186l0 539.939c0 7.219 5.872 13.093 13.089 13.093l765.035 0c7.214 0 13.083-5.874 13.083-13.093l0-539.942c-0.009-5.062-0.851-18.484-1.809-22.196l-60.06-197.572c-1.986-6.544-9.38-11.848-13.154-11.848l-641.159 0c-3.755 0-11.09 5.085-13.141 11.841l-60.073 197.591zM851.795 619.209c0-16.251-13.165-29.42-29.42-29.42l-281.992 0c-16.251 0-29.418 13.169-29.418 29.42 0 16.247 13.167 29.418 29.418 29.418l281.992 0c16.255 0 29.42-13.171 29.42-29.418zM822.375 709.013l-183.365 0c-16.251 0-29.416 13.169-29.416 29.426 0 16.239 13.165 29.412 29.416 29.412l183.365 0c16.255 0 29.42-13.173 29.42-29.412 0-16.257-13.165-29.426-29.42-29.426zM948.881 392.439c0 1.419-0.912 2.571-2.03 2.571l-852.065 0c-1.122 0-2.03-1.151-2.03-2.571l0-61.178c0-1.419 0.91-2.571 2.03-2.571l852.064 0c1.119 0 2.03 1.151 2.03 2.571l0 61.178z" p-id="12000" fill="#707070"></path></svg>