<?xml version="1.0" standalone="no"?><!DOCTYPE svg PUBLIC "-//W3C//DTD SVG 1.1//EN" "http://www.w3.org/Graphics/SVG/1.1/DTD/svg11.dtd"><svg t="1629624965035" class="icon" viewBox="0 0 1024 1024" version="1.1" xmlns="http://www.w3.org/2000/svg" p-id="13515" xmlns:xlink="http://www.w3.org/1999/xlink" width="200" height="200"><defs><style type="text/css"></style></defs><path d="M512 64a352.036571 352.036571 0 0 1 263.68 585.142857l-217.965714 286.939429c-24.429714 31.890286-64 31.890286-88.356572 0L252.708571 654.116571A351.963429 351.963429 0 0 1 512 64z m0 64a288.036571 288.036571 0 0 0-212.114286 482.816l3.657143 4.315429 209.92 273.408L724.845714 610.450286l2.925715-3.657143A288.036571 288.036571 0 0 0 512 128z m0 96.036571a192 192 0 1 1 0 384 192 192 0 0 1 0-384z m0 63.926858a128 128 0 1 0 0 256 128 128 0 0 0 0-256z" fill="#707070" p-id="13516"></path></svg>