<?xml version="1.0" standalone="no"?><!DOCTYPE svg PUBLIC "-//W3C//DTD SVG 1.1//EN" "http://www.w3.org/Graphics/SVG/1.1/DTD/svg11.dtd"><svg t="1629624999013" class="icon" viewBox="0 0 1024 1024" version="1.1" xmlns="http://www.w3.org/2000/svg" p-id="15019" xmlns:xlink="http://www.w3.org/1999/xlink" width="200" height="200"><defs><style type="text/css"></style></defs><path d="M930.601006 448.694731C926.127615 200.489277 743.260789 0 518.642309 0h-13.826847C280.196982 0 97.330156 200.489277 92.992322 448.694731c-39.44718 23.993646-66.423087 68.456447-66.423087 119.697114v69.405349c0 52.054011 27.518136 97.194599 68.049775 120.781572 4.744506 2.711146 9.62457 5.286736 14.775748 7.455653 14.233519 5.828965 31.178184 9.08234 49.342864 9.08234 15.589092 0 30.229282-2.440032 43.107228-6.913423 9.08234-3.253376 17.622452-7.59121 25.620334-12.742388 37.820492-24.26476 63.169711-67.77866 63.169711-117.663754v-69.405349c-0.135557-76.047657-58.425205-137.861795-130.677257-138.675139C172.835584 228.549643 322.490866 69.269791 505.086577 69.269791h13.826846c182.595711 0 332.250993 159.279852 345.128939 360.446915-72.252052 0.813344-130.5417 62.627482-130.677257 138.675139v69.405349c0 49.885094 25.349219 93.398994 63.169711 117.663754 7.997882 5.151178 16.537993 9.489012 25.620334 12.742388 12.877945 4.337834 27.518136 6.913423 43.107228 6.913423 18.164681 0 34.973789-3.388933 49.342864-9.08234 5.015621-2.168917 10.031242-4.608949 14.775748-7.455653 40.531639-23.586974 68.049775-68.592004 68.049775-120.781572v-69.405349c-0.542229-51.240667-27.382579-95.567911-66.829759-119.697114zM224.482923 568.527403v69.405348c0 11.251258-2.575589 21.960286-7.048981 31.313741-7.455653 15.589092-20.469155 27.789251-36.193804 33.753773-6.371194 2.711146-14.097961 4.202277-22.638073 4.202277-9.760127 0-18.70691-2.03336-25.484776-5.55785-14.369076-6.371194-26.29812-17.893566-33.347101-32.3982-4.608949-9.353455-7.184538-20.062483-7.184538-31.313741v-69.405348c0-38.227164 29.551496-69.405348 66.016415-69.405348 36.329362 0 65.880858 31.042626 65.880858 69.405348z m706.524755 69.405348c0 11.251258-2.575589 21.960286-7.184538 31.313741-7.048981 14.504633-18.978025 26.027006-33.347101 32.3982-6.777866 3.388933-15.724649 5.55785-25.484776 5.55785-8.540111 0-16.266878-1.626688-22.638073-4.202277-15.724649-6.100079-28.602595-18.300238-36.193804-33.753773-4.473392-9.353455-7.048981-20.062483-7.048981-31.313741v-69.405348c0-38.227164 29.551496-69.405348 66.016415-69.405348 36.329362 0 66.016415 31.178184 66.016415 69.405348v69.405348zM698.120201 939.954461c-15.317977-12.200159-17.758009-34.702674-5.422293-50.020651l49.207308-61.271909c12.200159-15.317977 34.702674-17.758009 50.020651-5.422293 15.317977 12.200159 17.758009 34.702674 5.422293 50.020651l-49.207307 61.271909c-12.200159 15.18242-34.702674 17.622452-50.020652 5.422293z" p-id="15020" fill="#707070"></path></svg>