<?xml version="1.0" standalone="no"?><!DOCTYPE svg PUBLIC "-//W3C//DTD SVG 1.1//EN" "http://www.w3.org/Graphics/SVG/1.1/DTD/svg11.dtd"><svg t="1629625011232" class="icon" viewBox="0 0 1024 1024" version="1.1" xmlns="http://www.w3.org/2000/svg" p-id="16525" xmlns:xlink="http://www.w3.org/1999/xlink" width="200" height="200"><defs><style type="text/css"></style></defs><path d="M934.838857 512a105.618286 105.618286 0 0 1 68.461714-99.108571L1024.585143 404.699429l-5.632-21.942858a519.314286 519.314286 0 0 0-56.758857-137.142857l-11.629715-19.602285-20.845714 9.289142a106.788571 106.788571 0 0 1-43.885714 9.289143 105.984 105.984 0 0 1-96.548572-149.504l9.289143-20.845714-19.675428-11.629714A522.386286 522.386286 0 0 0 641.682286 5.851429l-21.942857-5.632-8.192 21.211428a105.984 105.984 0 0 1-198.290286 0L405.065143 0.146286l-21.942857 5.632a519.314286 519.314286 0 0 0-137.142857 56.758857l-19.602286 11.629714 9.289143 20.845714a105.910857 105.910857 0 0 1-96.621715 149.430858 106.715429 106.715429 0 0 1-43.885714-9.216l-20.772571-9.216-11.629715 19.529142a516.534857 516.534857 0 0 0-56.905142 137.142858l-5.632 21.942857 21.211428 8.192a105.984 105.984 0 0 1 0 198.290285l-21.284571 8.192 5.632 21.942858a519.753143 519.753143 0 0 0 56.758857 137.142857l11.629714 19.602285 20.845714-9.289142a106.715429 106.715429 0 0 1 43.885715-9.289143 105.984 105.984 0 0 1 96.548571 149.504l-9.289143 20.845714 19.675429 11.629714a522.020571 522.020571 0 0 0 137.069714 56.905143l21.942857 5.632 8.192-21.211428a105.984 105.984 0 0 1 198.290286 0l8.192 21.284571 21.942857-5.632a519.972571 519.972571 0 0 0 137.142857-56.758857l19.602286-11.629714-9.289143-20.845715a105.910857 105.910857 0 0 1 96.621714-149.430857 106.861714 106.861714 0 0 1 43.885715 9.216l20.772571 9.216 11.629714-19.529143a516.681143 516.681143 0 0 0 56.905143-137.142857l5.632-21.942857-21.284571-8.192A105.618286 105.618286 0 0 1 934.838857 512z m-6.509714 222.061714a158.061714 158.061714 0 0 0-42.203429-5.705143 157.110857 157.110857 0 0 0-151.478857 199.460572 469.138286 469.138286 0 0 1-84.992 35.181714 157.257143 157.257143 0 0 0-273.993143 0 470.308571 470.308571 0 0 1-85.211428-35.254857 158.500571 158.500571 0 0 0-40.155429-153.6 155.867429 155.867429 0 0 0-111.104-46.08 157.696 157.696 0 0 0-42.349714 5.705143 468.553143 468.553143 0 0 1-35.181714-85.065143 157.257143 157.257143 0 0 0 0-273.993143 465.115429 465.115429 0 0 1 35.254857-85.138286 158.061714 158.061714 0 0 0 42.203428 5.705143A157.184 157.184 0 0 0 290.596571 95.817143 468.114286 468.114286 0 0 1 375.588571 60.635429a157.257143 157.257143 0 0 0 273.993143 0 470.674286 470.674286 0 0 1 85.211429 35.254857 158.500571 158.500571 0 0 0 40.155428 153.6 155.940571 155.940571 0 0 0 111.104 46.08 157.769143 157.769143 0 0 0 42.349715-5.705143 468.992 468.992 0 0 1 35.181714 85.065143 157.257143 157.257143 0 0 0 0 273.993143 465.92 465.92 0 0 1-35.254857 85.065142z" p-id="16526" fill="#707070"></path><path d="M512.585143 354.157714A157.842286 157.842286 0 1 0 670.427429 512 157.988571 157.988571 0 0 0 512.585143 354.157714z m0 264.411429A106.569143 106.569143 0 1 1 619.154286 512 106.715429 106.715429 0 0 1 512.585143 618.861714z" p-id="16527" fill="#707070"></path></svg>